<svg width="122" height="74" viewBox="0 0 122 74" fill="none" xmlns="http://www.w3.org/2000/svg">
<g clip-path="url(#clip0_2_10743)">
<path d="M7.96747 44.6465L0 63.3296H1.30387L2.79283 59.8481H11.5796L13.0931 63.3296H16.1282L8.01919 44.7695L7.96475 44.6465H7.96747ZM11.0951 58.7639H3.25558L7.12635 49.687L11.0951 58.7639Z" fill="#00512C"/>
<path d="M22.457 59.8853L18.1453 50.6225L18.1289 50.5881H15.3334L21.2212 63.2724L19.1851 68.8307H20.2957L26.9212 50.5881H25.8324L22.457 59.8853Z" fill="#00512C"/>
<path d="M38.3429 61.1525C37.6978 61.9735 36.7179 62.374 35.3514 62.374C34.2299 62.374 33.0322 61.5759 33.0322 59.3331V50.5623H30.5143L30.4898 59.4818C30.4898 61.4185 31.7583 63.6813 35.3269 63.6813C36.4375 63.6813 37.4528 63.2579 38.3429 62.4226V63.3295H40.8609V50.5623H38.3429V61.1525Z" fill="#00512C"/>
<path d="M49.9198 55.8175C49.6749 55.6945 49.4326 55.5801 49.1985 55.4714C47.8211 54.8191 46.735 54.3042 46.735 53.1743C46.735 52.0443 47.6823 51.2919 49.272 51.2919C50.0913 51.2919 52.2145 51.7039 52.2145 53.5748V53.6348H53.1727V53.5748C53.1727 50.6082 49.9035 50.4595 49.2475 50.4595C46.863 50.4595 44.4567 51.5322 44.4567 53.9266C44.4567 56.321 46.8167 57.3938 48.224 58.046L48.2839 58.0746C48.6133 58.2262 48.9209 58.3635 49.2067 58.4894C50.8181 59.2017 51.7055 59.5936 51.7055 60.9439C51.7055 62.008 50.5241 62.7489 48.8365 62.7489C47.2386 62.6917 45.5319 61.948 45.5319 60.0342V59.9741H44.4539V60.0342C44.4539 62.912 47.176 63.6787 48.7875 63.6787C51.8634 63.6787 54.0111 62.2827 54.0111 60.2859C54.0111 57.9573 52.4568 57.0705 49.9171 55.8118L49.9198 55.8175Z" fill="#00512C"/>
<path d="M63.1218 50.5625C62.0031 50.5625 60.9959 50.9859 60.1303 51.8183V44.7324H57.6124V63.3297H60.1303V53.0942C60.6938 52.3704 61.6628 51.5179 63.0973 51.5179C64.619 51.5179 65.441 53.2687 65.441 54.9136V63.3297H67.9589V54.7648C67.9589 52.8281 66.6905 50.5625 63.1218 50.5625Z" fill="#00512C"/>
<path d="M84.8956 50.5623C83.1807 50.5623 81.9994 51.5263 81.2998 52.3645C80.5186 51.1859 79.065 50.5623 77.0888 50.5623C75.9809 50.5623 74.9656 50.9856 74.0727 51.821V50.5623H71.5548V63.3295H74.0727V53.094C74.8866 52.0498 75.8938 51.5177 77.0643 51.5177C78.2347 51.5177 79.3835 52.7078 79.3835 54.9133V63.3295H81.9014L81.9259 54.7646V53.1197C82.6608 52.0298 83.5972 51.5206 84.8684 51.5206C85.9926 51.5206 87.1876 52.7106 87.1876 54.9162V63.3323H89.7055L89.73 54.7675C89.73 52.8308 88.4615 50.5651 84.8929 50.5651L84.8956 50.5623Z" fill="#00512C"/>
<path d="M98.691 50.4622C96.5378 50.4622 95.0815 51.2403 94.2431 52.8422L94.2078 52.9109L94.9917 53.1455L95.0162 53.1083C96.1077 51.4319 97.6403 51.369 98.5331 51.369H98.7373C100.245 51.369 100.89 52.0441 100.89 53.6289V54.8218C100.09 55.1308 99.2163 55.3368 98.3698 55.537C95.7757 56.152 93.3258 56.7299 93.3258 60.0626C93.3258 62.4198 94.4201 63.2522 95.3374 63.5383C95.6722 63.6413 96.0315 63.6899 96.399 63.6899C98.1575 63.6899 100.134 62.6172 100.89 61.5931V63.3295H103.408L103.433 54.3584C103.433 51.7352 101.881 50.4622 98.691 50.4622ZM100.89 55.68V60.6977C99.7281 62.1137 98.3181 62.7717 97.2946 62.374C96.497 62.0651 96.0588 61.164 96.0588 59.8395C96.0588 57.0331 97.7655 56.564 99.7444 56.0176C100.12 55.9146 100.507 55.8088 100.893 55.6829L100.89 55.68Z" fill="#00512C"/>
<path d="M112.565 50.5623C111.457 50.5623 110.442 50.9856 109.549 51.821V50.5623H107.031V63.3295H109.549V53.094C110.363 52.0498 111.37 51.5177 112.541 51.5177C113.711 51.5177 114.86 52.7078 114.86 54.9133V63.3295H117.378L117.402 54.7646C117.402 52.8279 116.134 50.5623 112.565 50.5623Z" fill="#00512C"/>
<path d="M31.3472 68.8687L33.4977 73.9063H32.8553L32.3816 72.7964H29.6432L29.1778 73.9063H28.5272L30.6776 68.8687H31.35H31.3472ZM31.0124 69.5037L29.8746 72.2242H32.1475L31.0124 69.5037Z" fill="#3DB549"/>
<path d="M36.4021 68.8908V68.8679H37.1289L38.5661 71.2566L40.0388 68.8679H40.7656V68.8908L38.8765 71.863V73.9056H38.2585V71.863L36.4021 68.8908Z" fill="#3DB549"/>
<path d="M48.5098 68.8766V71.9004C48.5098 72.5669 48.3247 73.0818 47.9518 73.448C47.5789 73.8142 47.1161 74.0001 46.5663 74.0001C46.0164 74.0001 45.5537 73.817 45.1726 73.4537C44.7915 73.0904 44.601 72.5726 44.601 71.9004V68.8766H45.1889V71.9004C45.1889 72.3781 45.3223 72.7529 45.5863 73.0218C45.8504 73.2935 46.177 73.4251 46.5663 73.4251C46.9555 73.4251 47.2767 73.2907 47.5353 73.016C47.7939 72.7443 47.9246 72.3695 47.9246 71.8947V68.8738H48.5071L48.5126 68.8795L48.5098 68.8766Z" fill="#3DB549"/>
<path d="M54.6045 72.0919H53.4395V73.9056H52.8434V68.8679H55.021C55.53 68.8679 55.9302 69.0253 56.216 69.3457C56.4991 69.6632 56.6433 70.0408 56.6433 70.4813C56.6488 70.8933 56.5372 71.2451 56.3085 71.5427C56.0799 71.8402 55.7342 72.0061 55.2687 72.0433L56.8502 73.9084H56.0989L54.6045 72.0948V72.0919ZM55.7805 71.2394C55.9601 71.0449 56.0499 70.796 56.0499 70.4956C56.0554 70.2182 55.9656 69.9721 55.7805 69.7547C55.5981 69.5373 55.3449 69.4286 55.021 69.4286H53.4368V71.5283H54.9911C55.334 71.5283 55.5954 71.4311 55.775 71.2366L55.7805 71.2394Z" fill="#3DB549"/>
<path d="M60.8734 68.8679L62.5121 73.1704L64.1617 68.8679H64.8177L62.8387 73.9199H62.1936L60.2092 68.8679H60.8734Z" fill="#3DB549"/>
<path d="M68.7157 68.8679H72.0856V69.4458H69.3064V71.0191H71.9712V71.6027H69.3064V73.3077H72.1945V73.9056H68.7157V68.8679Z" fill="#3DB549"/>
<path d="M76.2912 68.8623H78.0387C78.4307 68.8623 78.7846 68.9338 79.0976 69.0711C79.4134 69.2113 79.6665 69.4001 79.8598 69.6318C80.0503 69.8664 80.1973 70.1296 80.298 70.4214C80.3988 70.7132 80.4478 71.0135 80.4478 71.3311C80.4478 71.6629 80.3988 71.9804 80.3035 72.278C80.2082 72.5783 80.0667 72.8529 79.8761 73.099C79.6856 73.345 79.4324 73.5424 79.114 73.6911C78.7982 73.837 78.4389 73.9114 78.036 73.9114H76.2885V68.8652L76.2912 68.8623ZM79.3889 72.7013C79.6965 72.3151 79.8516 71.8546 79.8516 71.3225C79.8516 70.7904 79.6937 70.3785 79.378 70.0152C79.0649 69.6519 78.6158 69.4688 78.036 69.4688H76.8846V73.2821H78.036C78.6294 73.2821 79.0813 73.0875 79.3889 72.7013Z" fill="#3DB549"/>
<path d="M86.6377 68.8679L88.7882 73.9056H88.1458L87.6721 72.7956H84.9337L84.4683 73.9056H83.8177L85.9681 68.8679H86.6405H86.6377ZM86.3029 69.503L85.1678 72.2235H87.4407L86.3029 69.503Z" fill="#3DB549"/>
<path d="M101.593 44.8783C101.593 44.8783 101.282 38.4646 100.003 33.9505C98.6583 29.2104 97.183 27.8916 93.8539 22.8225C93.1843 21.8041 91.6327 20.9573 91.1264 19.9275C89.1175 15.8481 88.5513 11.6401 90.6691 6.7998C90.6691 6.7998 90.5547 11.5285 93.7368 15.9769C96.9189 20.4281 99.6873 21.4808 102.423 27.9745C105.545 35.3808 101.84 44.3319 101.593 44.8754V44.8783Z" fill="#3DB549"/>
<path d="M77.2548 9.18275C78.5532 10.8534 80.3252 12.7958 82.5982 14.5809C83.8149 15.5363 85.0888 16.4317 86.3192 17.2985C88.2519 18.6602 90.2499 20.0648 91.9893 21.6839C94.4582 23.981 96.5133 26.8503 97.9343 29.9827C99.4613 33.3526 99.9703 37.0028 100.194 40.6702C99.7825 39.9293 99.4069 39.0768 99.0095 38.1814C98.2255 36.4078 97.3354 34.3968 95.9036 32.6346C95.2149 31.785 94.6025 31.0183 94.0308 30.3031C91.4857 27.1135 89.6456 24.8078 85.2386 20.5396C81.1146 16.5433 78.3 13.1333 77.2548 9.18561M75.6106 4.37682C75.0798 11.4599 79.0731 16.3373 84.4002 21.4951C89.7272 26.6529 91.1917 28.827 94.9645 33.4785C97.1149 36.1303 97.9669 39.4401 99.3824 41.7687C100.463 43.5424 101.606 44.8783 101.606 44.8783C101.443 39.5889 101.255 34.2852 99.053 29.4249C97.5559 26.1208 95.4191 23.1343 92.8113 20.7084C89.8933 17.9936 86.4553 15.9826 83.3413 13.5367C78.1013 9.42305 75.6134 4.37109 75.6134 4.37109L75.6106 4.37682Z" fill="#3DB549"/>
<path d="M101.585 44.8354C99.6274 41.1308 97.428 38.293 94.8883 35.2836C93.2224 33.3097 91.8015 31.0898 88.8344 29.0959C80.4777 23.4604 72.7824 21.0088 64.0337 19.2524C63.4158 19.1236 62.7761 19.0149 62.1555 18.9062C54.0057 14.6123 48.0226 8.99969 45.7115 0C45.7115 0 50.5595 6.63391 59.7819 10.4272C67.2512 13.5053 75.0717 15.1759 82.2715 18.9692C86.1287 21.006 89.926 23.6521 92.8985 26.9705C96.1159 30.5921 98.6856 34.3167 100.381 39.4802C100.923 41.128 101.233 42.9273 101.585 44.8354Z" fill="#3DB549"/>
<path d="M28.568 12.009C31.8481 13.9028 36.658 16.0569 42.8588 17.1811C46.158 17.779 49.3183 18.2339 52.3779 18.6773C56.0527 19.2065 59.8527 19.7558 63.8078 20.5424C72.5974 22.2903 79.8544 23.9695 86.5779 28.2634C89.417 30.0771 92.2697 32.7489 94.8284 35.9872C96.2194 37.7494 97.4253 39.7547 98.4678 41.6485C97.3572 40.9763 96.0697 40.1552 94.7141 39.2055C93.8648 38.6105 92.9965 37.9611 92.1009 37.2888C89.0005 34.9688 85.4836 32.3399 81.4577 30.9982C75.1779 28.9071 70.9369 28.1833 65.569 27.2679C62.0358 26.6643 58.0316 25.9834 52.7018 24.7619C44.16 22.8052 34.7961 20.0247 28.568 12.0062M24.2862 7.43768C30.3483 20.0247 41.9333 23.6262 52.4378 26.0321C65.7078 29.073 70.6892 28.7755 81.0847 32.2369C86.0579 33.8932 90.2581 37.6436 94.0281 40.284C98.1412 43.1647 101.606 44.8754 101.606 44.8754C101.383 44.452 101.157 44.0257 100.934 43.5995C99.3906 40.6673 97.8227 37.738 95.7811 35.1519C93.3721 32.0996 90.4323 29.196 87.2203 27.1449C80.083 22.5878 72.17 20.8743 64.0365 19.258C56.7849 17.8162 50.3391 17.2097 43.0684 15.8938C30.9879 13.7083 24.2862 7.43481 24.2862 7.43481V7.43768Z" fill="#3DB549"/>
<path d="M101.606 44.8783C101.606 44.8783 88.8997 38.1013 76.8927 36.7911C64.8885 35.4781 59.5505 36.548 44.5138 36.4507C29.4772 36.3534 16.8849 33.7559 8.06546 24.2871C8.06546 24.2871 17.6498 28.9157 31.2139 28.6382C44.7779 28.3579 52.3017 24.8993 69.4261 27.308C92.6861 30.5806 100.828 44.0143 101.606 44.8783Z" fill="#3DB549"/>
<path d="M120.457 47.3011C120.574 47.1581 120.631 46.9779 120.631 46.7576C120.631 46.4973 120.549 46.2884 120.389 46.1368C120.228 45.9852 120.01 45.908 119.735 45.908H118.578V48.7171H119.112V47.6072H119.398L120.081 48.7171L120.715 48.7028L119.969 47.5786C120.176 47.5357 120.337 47.4413 120.454 47.2982L120.457 47.3011ZM119.115 47.1381V46.42H119.7C119.817 46.42 119.912 46.4486 119.986 46.5058C120.059 46.5631 120.097 46.6517 120.097 46.7747C120.097 46.8978 120.059 46.9893 119.986 47.0494C119.912 47.1094 119.817 47.1409 119.7 47.1409H119.115V47.1381Z" fill="#00512C"/>
<path d="M121.682 45.9881C121.469 45.5876 121.181 45.273 120.81 45.047C120.44 44.821 120.021 44.7065 119.547 44.7065C119.074 44.7065 118.652 44.821 118.279 45.047C117.906 45.273 117.615 45.5876 117.402 45.9881C117.19 46.3886 117.084 46.8377 117.084 47.3355C117.084 47.8333 117.19 48.2795 117.402 48.6743C117.615 49.0719 117.906 49.3809 118.279 49.6097C118.652 49.8357 119.074 49.9502 119.547 49.9502C120.021 49.9502 120.44 49.8357 120.81 49.6097C121.178 49.3837 121.469 49.0719 121.682 48.6743C121.894 48.2767 121.997 47.8304 121.997 47.3355C121.997 46.8406 121.891 46.3915 121.682 45.9881ZM120.998 48.9032C120.628 49.3122 120.146 49.5182 119.55 49.5182C118.954 49.5182 118.459 49.3122 118.088 48.9032C117.718 48.4941 117.536 47.9706 117.536 47.3355C117.536 46.7004 117.721 46.1769 118.088 45.7679C118.456 45.3588 118.943 45.1528 119.55 45.1528C120.157 45.1528 120.631 45.3588 120.998 45.7679C121.368 46.1769 121.551 46.7004 121.551 47.3355C121.551 47.9706 121.366 48.4941 120.998 48.9032Z" fill="#00512C"/>
</g>
<defs>
<clipPath id="clip0_2_10743">
<rect width="122" height="74" fill="white"/>
</clipPath>
</defs>
</svg>
