<svg width="169" height="102" viewBox="0 0 169 102" fill="none" xmlns="http://www.w3.org/2000/svg">
<g clip-path="url(#clip0_588_32607)">
<path d="M11.4716 61.5398L0.5 87.2922H2.29549L4.34587 82.4934H16.4457L18.5299 87.2922H22.7093L11.5428 61.7093L11.4678 61.5398H11.4716ZM15.7785 80.999H4.9831L10.3133 68.4875L15.7785 80.999Z" fill="#00512C"/>
<path d="M31.4248 82.5446L25.4873 69.7768L25.4649 69.7295H21.6152L29.723 87.2132L26.9192 94.8746H28.4486L37.5722 69.7295H36.0729L31.4248 82.5446Z" fill="#00512C"/>
<path d="M53.3005 84.2914C52.4121 85.4231 51.0627 85.9751 49.181 85.9751C47.6366 85.9751 45.9873 84.875 45.9873 81.7836V69.6941H42.5201L42.4863 81.9887C42.4863 84.6581 44.2331 87.7771 49.1473 87.7771C50.6766 87.7771 52.0748 87.1936 53.3005 86.0422V87.2921H56.7678V69.6941H53.3005V84.2914Z" fill="#00512C"/>
<path d="M69.2417 76.9377C68.9043 76.7681 68.5707 76.6104 68.2483 76.4606C66.3516 75.5615 64.856 74.8518 64.856 73.2942C64.856 71.7367 66.1605 70.6997 68.3495 70.6997C69.4778 70.6997 72.4016 71.2675 72.4016 73.8463V73.9291H73.721V73.8463C73.721 69.7573 69.2192 69.5522 68.3158 69.5522C65.0322 69.5522 61.7186 71.0309 61.7186 74.3313C61.7186 77.6316 64.9685 79.1103 66.9064 80.0093L66.9889 80.0488C67.4424 80.2577 67.866 80.447 68.2596 80.6205C70.4786 81.6024 71.7006 82.1425 71.7006 84.0037C71.7006 85.4705 70.0738 86.4918 67.7498 86.4918C65.5495 86.4129 63.1992 85.3877 63.1992 82.7498V82.667H61.7148V82.7498C61.7148 86.7165 65.4633 87.7733 67.6823 87.7733C71.918 87.7733 74.8755 85.8491 74.8755 83.0968C74.8755 79.8871 72.7352 78.6647 69.2379 76.9298L69.2417 76.9377Z" fill="#00512C"/>
<path d="M87.4227 69.6942C85.8821 69.6942 84.4952 70.2778 83.3032 71.4253V61.6582H79.8359V87.2923H83.3032V73.1839C84.0791 72.1863 85.4136 71.0112 87.389 71.0112C89.4843 71.0112 90.6164 73.4244 90.6164 75.6917V87.2923H94.0836V75.4866C94.0836 72.8172 92.3369 69.6942 87.4227 69.6942Z" fill="#00512C"/>
<path d="M117.406 69.6941C115.045 69.6941 113.418 71.0229 112.454 72.1782C111.379 70.5537 109.377 69.6941 106.656 69.6941C105.13 69.6941 103.732 70.2777 102.502 71.4291V69.6941H99.0352V87.2921H102.502V73.1837C103.623 71.7445 105.01 71.0111 106.622 71.0111C108.234 71.0111 109.816 72.6514 109.816 75.6915V87.2921H113.283L113.317 75.4865V73.2192C114.329 71.7169 115.618 71.015 117.369 71.015C118.917 71.015 120.562 72.6554 120.562 75.6955V87.2961H124.03L124.063 75.4904C124.063 72.821 122.317 69.698 117.402 69.698L117.406 69.6941Z" fill="#00512C"/>
<path d="M136.402 69.5562C133.437 69.5562 131.431 70.6287 130.277 72.8368L130.228 72.9314L131.308 73.2548L131.341 73.2035C132.845 70.8929 134.955 70.8061 136.184 70.8061H136.466C138.542 70.8061 139.431 71.7367 139.431 73.9212V75.5654C138.328 75.9913 137.125 76.2752 135.959 76.5512C132.387 77.399 129.014 78.1955 129.014 82.7892C129.014 86.0383 130.521 87.1857 131.784 87.58C132.245 87.722 132.74 87.789 133.246 87.789C135.667 87.789 138.388 86.3104 139.431 84.8987V87.2922H142.898L142.932 74.9267C142.932 71.3108 140.795 69.5562 136.402 69.5562ZM139.431 76.7484V83.6645C137.83 85.6164 135.888 86.5233 134.479 85.9752C133.381 85.5493 132.777 84.3073 132.777 82.4816C132.777 78.6134 135.127 77.9668 137.852 77.2136C138.37 77.0717 138.902 76.9258 139.434 76.7523L139.431 76.7484Z" fill="#00512C"/>
<path d="M155.507 69.6941C153.982 69.6941 152.583 70.2777 151.354 71.4291V69.6941H147.887V87.2921H151.354V73.1837C152.475 71.7445 153.862 71.0111 155.473 71.0111C157.085 71.0111 158.667 72.6514 158.667 75.6915V87.2921H162.134L162.168 75.4865C162.168 72.817 160.421 69.6941 155.507 69.6941Z" fill="#00512C"/>
<path d="M43.6667 94.9268L46.6279 101.871H45.7433L45.0911 100.341H41.3202L40.6792 101.871H39.7833L42.7446 94.9268H43.6704H43.6667ZM43.2056 95.8021L41.6388 99.552H44.7687L43.2056 95.8021Z" fill="#3DB549"/>
<path d="M50.6271 94.9578V94.9263H51.6279L53.6071 98.2188L55.635 94.9263H56.6358V94.9578L54.0344 99.0547V101.87H53.1835V99.0547L50.6271 94.9578Z" fill="#3DB549"/>
<path d="M67.3008 94.938V99.1059C67.3008 100.025 67.0459 100.734 66.5324 101.239C66.0189 101.744 65.3816 102 64.6245 102C63.8673 102 63.23 101.748 62.7053 101.247C62.1805 100.746 61.9181 100.033 61.9181 99.1059V94.938H62.7278V99.1059C62.7278 99.7644 62.9114 100.281 63.275 100.652C63.6386 101.026 64.0884 101.208 64.6245 101.208C65.1605 101.208 65.6028 101.022 65.9589 100.644C66.315 100.269 66.4949 99.7525 66.4949 99.098V94.9341H67.2971L67.3046 94.942L67.3008 94.938Z" fill="#3DB549"/>
<path d="M75.6931 99.3699H74.0888V101.87H73.2679V94.926H76.2666C76.9676 94.926 77.5186 95.1429 77.9122 95.5845C78.302 96.0222 78.5007 96.5427 78.5007 97.1499C78.5082 97.7177 78.3545 98.2027 78.0396 98.6128C77.7247 99.0229 77.2487 99.2516 76.6077 99.3029L78.7855 101.874H77.751L75.6931 99.3738V99.3699ZM77.3124 98.1948C77.5598 97.9267 77.6835 97.5837 77.6835 97.1696C77.691 96.7872 77.5673 96.4481 77.3124 96.1484C77.0613 95.8487 76.7127 95.6989 76.2666 95.6989H74.085V98.5931H76.2254C76.6977 98.5931 77.0575 98.459 77.3049 98.1909L77.3124 98.1948Z" fill="#3DB549"/>
<path d="M84.3249 94.9263L86.5814 100.857L88.853 94.9263H89.7563L87.0313 101.89H86.1429L83.4103 94.9263H84.3249Z" fill="#3DB549"/>
<path d="M95.1251 94.9263H99.7657V95.7228H95.9385V97.8915H99.6082V98.6959H95.9385V101.046H99.9156V101.87H95.1251V94.9263Z" fill="#3DB549"/>
<path d="M105.557 94.9182H107.963C108.503 94.9182 108.99 95.0168 109.421 95.2061C109.856 95.3993 110.205 95.6595 110.471 95.9789C110.733 96.3022 110.936 96.665 111.074 97.0672C111.213 97.4694 111.281 97.8834 111.281 98.3211C111.281 98.7785 111.213 99.2162 111.082 99.6263C110.951 100.04 110.756 100.419 110.493 100.758C110.231 101.097 109.882 101.369 109.444 101.574C109.009 101.775 108.514 101.878 107.959 101.878H105.553V94.9222L105.557 94.9182ZM109.822 100.21C110.246 99.6775 110.46 99.0427 110.46 98.3093C110.46 97.5759 110.242 97.0081 109.807 96.5073C109.376 96.0065 108.758 95.7541 107.959 95.7541H106.374V101.01H107.959C108.777 101.01 109.399 100.742 109.822 100.21Z" fill="#3DB549"/>
<path d="M119.805 94.9263L122.767 101.87H121.882L121.23 100.34H117.459L116.818 101.87H115.922L118.883 94.9263H119.809H119.805ZM119.344 95.8016L117.781 99.5515H120.911L119.344 95.8016Z" fill="#3DB549"/>
<path d="M140.399 61.8591C140.399 61.8591 139.971 53.0187 138.21 46.7965C136.358 40.2628 134.326 38.445 129.742 31.4578C128.82 30.0541 126.683 28.8869 125.986 27.4674C123.22 21.8446 122.44 16.0443 125.356 9.37256C125.356 9.37256 125.199 15.8905 129.581 22.022C133.963 28.1575 137.775 29.6085 141.542 38.5594C145.841 48.768 140.74 61.106 140.399 61.8552V61.8591Z" fill="#3DB549"/>
<path d="M106.884 12.6572C108.672 14.96 111.112 17.6373 114.242 20.0978C115.918 21.4148 117.672 22.649 119.366 23.8438C122.028 25.7207 124.779 27.6567 127.174 29.8885C130.574 33.0548 133.404 37.0097 135.361 41.3274C137.463 45.9724 138.164 51.0038 138.472 56.0588C137.906 55.0376 137.389 53.8625 136.841 52.6284C135.762 50.1836 134.536 47.4116 132.564 44.9827C131.616 43.8116 130.773 42.7548 129.985 41.7691C126.481 37.3725 123.947 34.1944 117.878 28.3113C112.199 22.8028 108.323 18.1026 106.884 12.6611M104.62 6.03279C103.889 15.7959 109.388 22.5189 116.724 29.6283C124.059 36.7377 126.076 39.7344 131.271 46.1459C134.232 49.8012 135.406 54.3633 137.355 57.573C138.843 60.0177 140.417 61.8591 140.417 61.8591C140.192 54.5684 139.934 47.2579 136.901 40.5585C134.84 36.0043 131.897 31.8877 128.306 28.5439C124.288 24.8019 119.554 22.0299 115.265 18.6586C108.05 12.9884 104.624 6.0249 104.624 6.0249L104.62 6.03279Z" fill="#3DB549"/>
<path d="M140.387 61.8001C137.692 56.6938 134.663 52.7823 131.166 48.6341C128.872 45.9134 126.915 42.8536 122.83 40.1052C111.322 32.3373 100.725 28.9581 88.6778 26.537C87.8269 26.3596 86.9461 26.2098 86.0914 26.0599C74.8687 20.1413 66.6297 12.405 63.4473 0C63.4473 0 70.1232 9.14404 82.8228 14.3726C93.1084 18.6154 103.878 20.9181 113.792 26.1467C119.104 28.9542 124.333 32.6015 128.426 37.1755C132.857 42.1675 136.395 47.3014 138.73 54.4187C139.476 56.6899 139.904 59.1701 140.387 61.8001Z" fill="#3DB549"/>
<path d="M39.8396 16.5531C44.3564 19.1634 50.9799 22.1325 59.5188 23.6822C64.0618 24.5063 68.4137 25.1332 72.627 25.7444C77.6873 26.4739 82.9201 27.231 88.3665 28.3153C100.47 30.7245 110.463 33.0391 119.722 38.9577C123.632 41.4576 127.56 45.1405 131.083 49.6041C132.999 52.033 134.659 54.7971 136.095 57.4075C134.566 56.4808 132.793 55.3492 130.926 54.0401C129.756 53.2199 128.561 52.3248 127.328 51.3982C123.058 48.2003 118.215 44.5766 112.671 42.7273C104.024 39.8449 98.1836 38.8473 90.7918 37.5855C85.9263 36.7535 80.4124 35.8151 73.073 34.1314C61.3105 31.4343 48.416 27.6016 39.8396 16.5491M33.9434 10.252C42.2911 27.6016 58.2443 32.566 72.7094 35.8821C90.9829 40.0736 97.8425 39.6635 112.158 44.4347C119.006 46.7177 124.79 51.8871 129.981 55.5266C135.645 59.4973 140.417 61.8553 140.417 61.8553C140.11 61.2717 139.798 60.6842 139.491 60.0967C137.366 56.055 135.207 52.0173 132.395 48.4527C129.078 44.2454 125.03 40.2432 120.607 37.416C110.778 31.1346 99.8817 28.7727 88.6814 26.5449C78.6956 24.5575 69.8194 23.7216 59.8074 21.9078C43.1719 18.8953 33.9434 10.248 33.9434 10.248V10.252Z" fill="#3DB549"/>
<path d="M140.418 61.8592C140.418 61.8592 122.92 52.518 106.386 50.7121C89.8555 48.9022 82.5049 50.3769 61.7986 50.2428C41.0924 50.1088 23.7523 46.5285 11.6074 33.4768C11.6074 33.4768 24.8056 39.8567 43.4839 39.4743C62.1622 39.0878 72.5228 34.3206 96.1041 37.6407C128.134 42.1516 139.346 60.6684 140.418 61.8592Z" fill="#3DB549"/>
<path d="M166.375 65.1991C166.537 65.0019 166.615 64.7535 166.615 64.4499C166.615 64.0911 166.503 63.8032 166.282 63.5943C166.061 63.3853 165.761 63.2788 165.382 63.2788H163.789V67.1509H164.524V65.621H164.917L165.858 67.1509L166.731 67.1312L165.704 65.5816C165.989 65.5224 166.21 65.3923 166.372 65.1952L166.375 65.1991ZM164.527 64.9743V63.9846H165.333C165.494 63.9846 165.626 64.0241 165.727 64.1029C165.828 64.1818 165.881 64.304 165.881 64.4736C165.881 64.6431 165.828 64.7693 165.727 64.8521C165.626 64.9349 165.494 64.9783 165.333 64.9783H164.527V64.9743Z" fill="#00512C"/>
<path d="M168.061 63.3893C167.769 62.8373 167.372 62.4035 166.862 62.092C166.352 61.7805 165.775 61.6228 165.123 61.6228C164.47 61.6228 163.889 61.7805 163.376 62.092C162.862 62.4035 162.461 62.8373 162.169 63.3893C161.877 63.9413 161.73 64.5604 161.73 65.2465C161.73 65.9326 161.877 66.5477 162.169 67.0919C162.461 67.64 162.862 68.0658 163.376 68.3813C163.889 68.6928 164.47 68.8505 165.123 68.8505C165.775 68.8505 166.352 68.6928 166.862 68.3813C167.368 68.0698 167.769 67.64 168.061 67.0919C168.354 66.5438 168.496 65.9287 168.496 65.2465C168.496 64.5644 168.35 63.9453 168.061 63.3893ZM167.121 67.4073C166.611 67.9712 165.947 68.2551 165.126 68.2551C164.306 68.2551 163.623 67.9712 163.114 67.4073C162.604 66.8435 162.353 66.1219 162.353 65.2465C162.353 64.3711 162.608 63.6496 163.114 63.0857C163.62 62.5218 164.291 62.2379 165.126 62.2379C165.962 62.2379 166.615 62.5218 167.121 63.0857C167.63 63.6496 167.882 64.3711 167.882 65.2465C167.882 66.1219 167.627 66.8435 167.121 67.4073Z" fill="#00512C"/>
</g>
<defs>
<clipPath id="clip0_588_32607">
<rect width="168" height="102" fill="white" transform="translate(0.5)"/>
</clipPath>
</defs>
</svg>
