<svg width="98" height="29" viewBox="0 0 98 29" fill="none" xmlns="http://www.w3.org/2000/svg">
<g clip-path="url(#clip0_2_4034)">
<path d="M18.865 5.43922C18.9399 5.57567 19.0223 5.71212 19.0747 5.86373C19.101 5.93954 19.1422 6.01535 19.1721 6.08737C19.2321 6.22761 19.2957 6.36785 19.3482 6.51189C19.4943 6.91366 19.6366 7.31923 19.7265 7.73617C19.7715 7.93706 19.7977 8.14174 19.8352 8.34263C19.8951 8.64206 19.9438 8.94529 19.9663 9.24852C20.0037 9.74506 20.015 10.2378 19.985 10.7343C19.97 10.9807 19.955 11.2233 19.9288 11.4697C19.9063 11.6819 19.8651 11.8904 19.8352 12.1027C19.809 12.2656 19.794 12.4324 19.7603 12.5954C19.7003 12.8607 19.6291 13.1223 19.5655 13.3876C19.5355 13.5051 19.5093 13.6226 19.4681 13.7325C19.3632 14.0206 19.2545 14.3049 19.1459 14.5929C18.82 15.4533 18.3592 16.2417 17.8573 17.0074C17.2617 17.9133 16.5949 18.7661 15.9243 19.6189C15.1976 20.54 14.4671 21.4648 13.7854 22.42C13.201 23.2349 12.6503 24.0726 12.1746 24.9595C12.0884 25.1187 12.0172 25.2817 11.9423 25.4447C11.8187 25.7214 11.6838 25.9943 11.5789 26.2748C11.4516 26.6159 11.3467 26.9608 11.2343 27.3058C11.1519 27.5484 11.077 27.7947 10.9908 28.0335C10.9384 28.1775 10.8859 28.3216 10.8185 28.4618C10.6949 28.7158 10.5188 28.9167 10.2229 28.9735C9.9794 29.0228 9.74714 29.0114 9.52987 28.8712C9.44746 28.8181 9.37629 28.7575 9.31635 28.6703C9.19648 28.4921 9.10657 28.3026 9.0354 28.1017C8.99045 27.9653 8.94175 27.8326 8.8968 27.6962C8.80689 27.4195 8.71699 27.1466 8.62334 26.8699C8.54092 26.6311 8.46226 26.3885 8.3761 26.1535C8.33115 26.0284 8.26372 25.9147 8.21127 25.7934C8.16632 25.6873 8.12512 25.5736 8.08016 25.4674C8.05769 25.4106 8.02772 25.3613 8.0015 25.3045C7.60067 24.4516 7.09122 23.6708 6.55928 22.9014C6.25211 22.4579 5.92995 22.0296 5.61903 21.5937C5.59281 21.5596 5.57033 21.5217 5.54785 21.4838C5.76887 21.2147 5.98989 20.9418 6.21465 20.6726C6.3982 20.4528 6.5855 20.2368 6.76906 20.0131C7.00506 19.7289 7.23731 19.437 7.47705 19.1527C7.57445 19.0314 7.68309 18.9215 7.78423 18.8002C7.88537 18.6789 7.97528 18.55 8.07642 18.4288C8.22626 18.2506 8.37985 18.08 8.52969 17.9019C8.67578 17.7275 8.81438 17.5456 8.95673 17.3713C9.19648 17.087 9.43997 16.8027 9.67597 16.5184C10.1442 15.9537 10.6087 15.3889 11.077 14.8241C11.3167 14.5323 11.5565 14.2404 11.8 13.9486C11.9948 13.7136 12.1933 13.4861 12.3918 13.2511C12.478 13.1488 12.5604 13.0389 12.6428 12.9327C12.6503 12.9252 12.6578 12.9138 12.669 12.9062C12.6878 12.8873 12.7065 12.8645 12.7215 12.8418C12.7215 12.8418 12.7327 12.8266 12.7402 12.8228C12.7402 12.819 12.7477 12.8152 12.7515 12.8115C12.7589 12.8115 12.7589 12.8077 12.7589 12.8001C12.9238 12.5878 13.0923 12.3756 13.2572 12.1633C13.3021 12.1557 13.3283 12.1368 13.3134 12.0875C13.3321 12.0799 13.3583 12.0761 13.3695 12.061C13.422 12.0041 13.4669 11.9435 13.5156 11.8866C14.0401 11.2536 14.5645 10.6244 15.089 9.99143C15.5273 9.46078 15.9693 8.93392 16.4076 8.40327C16.932 7.77028 17.4565 7.14108 17.9809 6.5081C18.2768 6.1518 18.5728 5.79172 18.8687 5.43542L18.865 5.43922Z" fill="#1FA149"/>
<path d="M12.6391 12.9365C12.5567 13.0426 12.4742 13.1487 12.3881 13.2548C12.1933 13.4898 11.9948 13.7173 11.7962 13.9523C11.5527 14.2441 11.313 14.536 11.0732 14.8278C10.605 15.3926 10.1405 15.9574 9.67222 16.5221C9.43622 16.8102 9.18899 17.0907 8.95299 17.375C8.80689 17.5493 8.67204 17.7313 8.52594 17.9056C8.3761 18.0838 8.22251 18.2543 8.07267 18.4325C7.97153 18.5538 7.88163 18.6826 7.78048 18.8039C7.68309 18.9252 7.57445 19.0351 7.47331 19.1564C7.23731 19.4407 7.00506 19.7326 6.76531 20.0168C6.58176 20.2367 6.39445 20.4527 6.2109 20.6764C5.98614 20.9455 5.76512 21.2184 5.54411 21.4875C5.49541 21.4344 5.44671 21.3814 5.40176 21.3245C4.70125 20.4262 3.997 19.5355 3.30773 18.6296C2.94063 18.1482 2.59225 17.6517 2.24387 17.1589C1.97041 16.7723 1.72691 16.3591 1.49841 15.9422C1.37853 15.7262 1.25492 15.5063 1.13879 15.2865C1.07885 15.1728 1.04139 15.0439 0.996441 14.9226C1.10882 14.7899 1.2212 14.6573 1.32984 14.5208C1.43098 14.3957 1.52838 14.2669 1.63326 14.1418C1.78311 13.9598 1.94418 13.7855 2.09402 13.6073C2.36374 13.2852 2.62971 12.9592 2.89942 12.637C3.13167 12.3565 3.36767 12.076 3.59992 11.7993C3.87713 11.462 4.15808 11.1285 4.43529 10.7911C4.66379 10.5144 4.89605 10.2377 5.1283 9.96102C5.39801 9.63884 5.66398 9.31287 5.93369 8.99069C6.19592 8.6723 6.45814 8.3577 6.72411 8.03931C6.75033 8.00899 6.7803 7.98625 6.81026 7.95972C6.79153 7.99762 6.7803 8.03931 6.75782 8.07722C6.56303 8.38803 6.42068 8.72158 6.32703 9.07408C6.25211 9.35078 6.19966 9.63126 6.19217 9.92312C6.16595 10.6964 6.33077 11.4203 6.72411 12.0874C7.04252 12.6256 7.46207 13.0615 7.98651 13.3989C8.30492 13.6036 8.65331 13.7552 9.01292 13.8613C9.20397 13.9182 9.39876 13.9561 9.60105 13.9636C9.80333 13.9712 10.0056 13.9826 10.2079 13.9826C10.3203 13.9826 10.4364 13.975 10.5488 13.9598C10.6949 13.9371 10.841 13.903 10.9833 13.8651C11.0807 13.8386 11.1819 13.812 11.2755 13.7703C11.4403 13.6983 11.6052 13.6225 11.77 13.5429C12.0547 13.4065 12.3169 13.2359 12.5379 13.0085C12.5679 12.9781 12.6091 12.9668 12.6466 12.944L12.6391 12.9365Z" fill="#F4B31C"/>
<path d="M18.865 5.43914C18.569 5.79544 18.2731 6.15552 17.9772 6.51181C17.4527 7.1448 16.9283 7.774 16.4038 8.40699C15.9655 8.93764 15.5235 9.4645 15.0852 9.99515C14.5608 10.6281 14.0363 11.2573 13.5119 11.8903C13.4632 11.9472 13.4145 12.0078 13.3658 12.0647C13.3546 12.0798 13.3283 12.0836 13.3096 12.0912C13.3171 12.0647 13.3208 12.0382 13.3321 12.0154C13.4033 11.8676 13.4857 11.7273 13.5419 11.5757C13.6168 11.3748 13.688 11.1702 13.7217 10.9579C13.7516 10.7835 13.7891 10.6092 13.8116 10.4348C13.8528 10.1392 13.8266 9.84354 13.7854 9.54789C13.7441 9.24845 13.6617 8.96038 13.5531 8.68369C13.2759 7.97868 12.8301 7.40634 12.2195 6.96287C11.9723 6.78472 11.6988 6.64448 11.4179 6.52318C11.1669 6.41706 10.9084 6.3602 10.6499 6.29955C10.4776 6.26165 10.2978 6.25407 10.1217 6.2427C9.85952 6.22375 9.5973 6.25028 9.33883 6.29576C8.86683 6.37915 8.42105 6.55351 8.00899 6.79988C7.83293 6.90601 7.66061 7.01593 7.51826 7.16755C7.46582 7.2244 7.39839 7.26609 7.33471 7.31537C7.3422 7.29263 7.3422 7.26609 7.35718 7.24714C7.45458 7.12585 7.55947 7.00835 7.65686 6.89085C7.79172 6.72786 7.93032 6.56867 8.06518 6.40568C8.21128 6.22754 8.35737 6.0456 8.50347 5.86745C8.65705 5.68552 8.81438 5.50358 8.96797 5.32164C9.12905 5.13213 9.26765 4.91608 9.44746 4.74172C9.46619 4.72277 9.48118 4.69623 9.49616 4.67349C9.57483 4.57494 9.65349 4.4726 9.73591 4.37784C9.85952 4.23381 9.98689 4.08978 10.1143 3.94195C10.2341 3.80171 10.3465 3.65768 10.4664 3.51743C10.5675 3.39614 10.6687 3.27864 10.7661 3.16114C10.9196 2.97541 11.0695 2.79348 11.2231 2.60775C11.3242 2.48646 11.4291 2.36517 11.5302 2.24008C11.6801 2.05815 11.8299 1.87621 11.9798 1.69427C12.0922 1.55782 12.2008 1.42137 12.3132 1.28871C12.4181 1.16362 12.5267 1.03854 12.6316 0.913461C12.7552 0.761847 12.8751 0.610232 12.9987 0.458618C13.2309 0.545796 13.4669 0.629184 13.6992 0.720153C13.8827 0.792169 14.0626 0.867976 14.2424 0.951364C14.8305 1.22048 15.3812 1.55403 15.9019 1.94444C16.0817 2.0771 16.2577 2.21734 16.4263 2.36138C16.5349 2.45234 16.6286 2.55847 16.7335 2.65323C16.8309 2.7442 16.9395 2.82759 17.0332 2.92614C17.1455 3.03985 17.2392 3.17251 17.3553 3.27864C17.5538 3.46437 17.7187 3.68042 17.8872 3.89647C18.2356 4.34752 18.5503 4.82132 18.805 5.33301C18.8238 5.36713 18.8425 5.40503 18.8612 5.43914H18.865Z" fill="#2A86D1"/>
<path d="M6.80652 7.95216C6.77655 7.9787 6.74284 8.00144 6.72036 8.03176C6.45814 8.34636 6.19592 8.66475 5.92995 8.98314C5.66024 9.30532 5.39427 9.63129 5.12456 9.95347C4.89605 10.2302 4.66379 10.5069 4.43154 10.7836C4.15434 11.1209 3.87338 11.4545 3.59618 11.7918C3.36393 12.0723 3.12793 12.349 2.89567 12.6295C2.62596 12.9516 2.35999 13.2776 2.09028 13.5998C1.94044 13.7817 1.77936 13.9561 1.62952 14.1342C1.52463 14.2593 1.43098 14.3882 1.32609 14.5133C1.21746 14.6497 1.10508 14.7824 0.992695 14.915C0.921521 14.8203 0.887807 14.7066 0.842854 14.6004C0.824124 14.555 0.805394 14.5057 0.79041 14.4602C0.711744 14.2517 0.636823 14.0433 0.569395 13.831C0.501966 13.6187 0.445776 13.4027 0.378348 13.1904C0.299681 12.9478 0.262221 12.6939 0.209777 12.4437C0.183555 12.3035 0.149841 12.167 0.123618 12.0268C0.108634 11.9434 0.101142 11.86 0.0936503 11.7804C0.0636821 11.3824 0.029968 10.9807 0.0112379 10.5827C-0.0149843 10.052 0.00374581 9.52137 0.0636821 8.99072C0.0711742 8.92249 0.0674281 8.85427 0.0749202 8.78604C0.0786662 8.73677 0.0899043 8.6837 0.0973963 8.63443C0.138603 8.40701 0.168571 8.17579 0.224761 7.94837C0.295935 7.64514 0.382094 7.34192 0.471998 7.04248C0.546919 6.79231 0.621839 6.54215 0.726728 6.30336C0.977711 5.71206 1.25492 5.13593 1.61453 4.60149C1.82431 4.28689 2.05282 3.99124 2.27383 3.68422C2.29631 3.6539 2.32628 3.62737 2.35625 3.59705C2.37872 3.61979 2.4012 3.64253 2.42742 3.66148C3.82843 4.85165 5.2257 6.04561 6.62671 7.23579C6.76906 7.35708 6.91515 7.47458 7.0575 7.59587C7.0088 7.66789 6.9601 7.74369 6.90766 7.81571C6.90766 7.81571 6.89642 7.82708 6.88893 7.83087C6.88893 7.83087 6.88144 7.83845 6.88144 7.84224C6.88144 7.84982 6.88144 7.85361 6.87395 7.85361C6.85896 7.87636 6.84398 7.89531 6.82899 7.91805V7.92563C6.82899 7.92563 6.81776 7.94458 6.81026 7.95216H6.80652Z" fill="#ED352B"/>
<path d="M7.05376 7.59965C6.91141 7.47836 6.76531 7.36086 6.62296 7.23957C5.22195 6.0494 3.82469 4.85544 2.42368 3.66527C2.4012 3.64631 2.37498 3.62357 2.3525 3.60083C2.43866 3.49849 2.51733 3.39615 2.60723 3.30139C2.78329 3.11187 2.9631 2.92236 3.1504 2.74421C3.85091 2.06953 4.63757 1.51614 5.49916 1.07266C6.27833 0.670887 7.09496 0.38282 7.94905 0.208463C8.17007 0.162979 8.39858 0.132656 8.62334 0.102333C8.81813 0.0758009 9.01292 0.0492684 9.20772 0.0265263C9.22645 0.0265263 9.24892 0.0265263 9.26765 0.0265263C9.35007 0.0189456 9.42873 0.0151552 9.51114 0.00757453C9.56733 0.00757453 9.61978 0.00757453 9.67597 0.00378418C9.86327 0.00378418 10.0468 0.00378418 10.2341 0.00378418C10.3203 0.00378418 10.4064 0.00757453 10.4926 0.0113649C10.5188 0.0189456 10.545 0.0303167 10.5713 0.0303167C10.6612 0.0303167 10.7548 0.0303167 10.8447 0.0303167C11.0433 0.0492684 11.2456 0.0568491 11.4441 0.087172C11.6614 0.121285 11.8749 0.17056 12.0847 0.219834C12.3207 0.272899 12.5567 0.329755 12.7889 0.3904C12.8601 0.409352 12.9275 0.439675 12.9987 0.462417C12.8751 0.614031 12.7552 0.769436 12.6316 0.91726C12.5267 1.04234 12.4181 1.16742 12.3132 1.2925C12.2008 1.42896 12.0884 1.56162 11.9798 1.69807C11.8299 1.88001 11.6801 2.06195 11.5302 2.24388C11.4291 2.36517 11.3242 2.48647 11.2231 2.61155C11.0695 2.79728 10.9196 2.97921 10.7661 3.16494C10.6649 3.28623 10.5638 3.40373 10.4664 3.52123C10.3503 3.66148 10.2341 3.80551 10.1143 3.94575C9.99064 4.09358 9.86327 4.23382 9.73591 4.38164C9.65349 4.48019 9.57483 4.57874 9.49616 4.67729C9.47743 4.70003 9.46619 4.72657 9.44746 4.74552C9.26765 4.91987 9.12905 5.13592 8.96797 5.32544C8.81439 5.50738 8.65705 5.68932 8.50347 5.87125C8.35362 6.0494 8.21128 6.23134 8.06518 6.40948C7.93032 6.57247 7.79547 6.73545 7.65687 6.89465C7.55572 7.01215 7.45458 7.13344 7.35718 7.25094C7.3422 7.2661 7.3422 7.29643 7.33471 7.31917C7.26353 7.40255 7.18861 7.48215 7.11369 7.56554C7.09871 7.5807 7.07249 7.58828 7.05376 7.59965Z" fill="#266FB6"/>
<path d="M10.841 0.0303043C10.7511 0.0303043 10.6574 0.0303043 10.5675 0.0303043C10.5413 0.0303043 10.5151 0.0189332 10.4889 0.0113525C10.605 0.0189332 10.7211 0.026514 10.841 0.0340947V0.0303043Z" fill="#266FB6"/>
<path d="M13.2534 12.167C13.2721 12.1405 13.2909 12.1139 13.3096 12.0912C13.3246 12.1405 13.2946 12.1594 13.2534 12.167Z" fill="#266FB6"/>
<path d="M12.6615 12.9137C12.6803 12.8909 12.699 12.8682 12.714 12.8455C12.6953 12.8682 12.6765 12.8909 12.6615 12.9137Z" fill="#F4B31C"/>
<path d="M12.744 12.8159C12.744 12.8159 12.744 12.8038 12.7521 12.8038C12.7521 12.8119 12.7521 12.8159 12.744 12.8159Z" fill="#F4B31C"/>
<path d="M12.7177 12.8455C12.7177 12.8455 12.729 12.8341 12.7365 12.8265C12.729 12.8341 12.7252 12.8379 12.7177 12.8455Z" fill="#F4B31C"/>
<path d="M12.6391 12.9364C12.6391 12.9364 12.6541 12.9175 12.6653 12.9099C12.6578 12.9175 12.6503 12.9289 12.6391 12.9364Z" fill="#F4B31C"/>
<path d="M6.90391 7.81953H6.90765V7.81567L6.90391 7.81953Z" fill="#F4B31C"/>
<path d="M6.88893 7.8385C6.88893 7.8385 6.88893 7.84229 6.89268 7.84608C6.88893 7.84608 6.88518 7.84608 6.88144 7.84987C6.88144 7.84608 6.88518 7.84229 6.88893 7.8385Z" fill="#F4B31C"/>
<path d="M6.82525 7.92944C6.82525 7.92944 6.81401 7.9484 6.80652 7.95598C6.81401 7.9484 6.81776 7.93702 6.82525 7.92944Z" fill="#F4B31C"/>
</g>
<path d="M28.8807 11V3.72727H33.2415V4.50852H29.7614V6.96591H32.9148V7.74716H29.7614V11H28.8807ZM34.6362 11V5.54545H35.4743V11H34.6362ZM35.0623 4.63636C34.899 4.63636 34.7581 4.58073 34.6397 4.46946C34.5237 4.35819 34.4657 4.22443 34.4657 4.06818C34.4657 3.91193 34.5237 3.77817 34.6397 3.6669C34.7581 3.55563 34.899 3.5 35.0623 3.5C35.2257 3.5 35.3654 3.55563 35.4814 3.6669C35.5997 3.77817 35.6589 3.91193 35.6589 4.06818C35.6589 4.22443 35.5997 4.35819 35.4814 4.46946C35.3654 4.58073 35.2257 4.63636 35.0623 4.63636ZM37.8473 7.71875V11H37.0092V5.54545H37.8189V6.39773H37.8899C38.0178 6.12074 38.2119 5.8982 38.4723 5.73011C38.7327 5.55966 39.0689 5.47443 39.4808 5.47443C39.8501 5.47443 40.1733 5.55019 40.4503 5.7017C40.7273 5.85085 40.9427 6.07812 41.0966 6.38352C41.2505 6.68655 41.3274 7.07008 41.3274 7.53409V11H40.4893V7.59091C40.4893 7.16241 40.3781 6.8286 40.1555 6.58949C39.933 6.34801 39.6276 6.22727 39.2393 6.22727C38.9718 6.22727 38.7327 6.28527 38.522 6.40128C38.3137 6.51728 38.1491 6.68655 38.0284 6.90909C37.9077 7.13163 37.8473 7.40152 37.8473 7.71875ZM44.9185 11.1136C44.464 11.1136 44.0627 10.9988 43.7147 10.7692C43.3667 10.5372 43.0944 10.2105 42.8979 9.78906C42.7014 9.36529 42.6032 8.86458 42.6032 8.28693C42.6032 7.71402 42.7014 7.21686 42.8979 6.79545C43.0944 6.37405 43.3678 6.04853 43.7182 5.81889C44.0686 5.58925 44.4734 5.47443 44.9327 5.47443C45.2878 5.47443 45.5684 5.53362 45.7743 5.65199C45.9827 5.76799 46.1413 5.90057 46.2502 6.04972C46.3614 6.1965 46.4479 6.31723 46.5094 6.41193H46.5804V3.72727H47.4185V11H46.6088V10.1619H46.5094C46.4479 10.2614 46.3603 10.3868 46.2466 10.5384C46.133 10.6875 45.9708 10.8213 45.7601 10.9396C45.5494 11.0556 45.2689 11.1136 44.9185 11.1136ZM45.0321 10.3608C45.3683 10.3608 45.6524 10.2732 45.8844 10.098C46.1164 9.92045 46.2928 9.67543 46.4135 9.36293C46.5343 9.04806 46.5946 8.68466 46.5946 8.27273C46.5946 7.86553 46.5355 7.50923 46.4171 7.20384C46.2987 6.89607 46.1235 6.65696 45.8915 6.48651C45.6595 6.31368 45.373 6.22727 45.0321 6.22727C44.677 6.22727 44.3811 6.31842 44.1444 6.50071C43.91 6.68063 43.7336 6.92566 43.6152 7.2358C43.4992 7.54356 43.4412 7.8892 43.4412 8.27273C43.4412 8.66098 43.5004 9.01373 43.6188 9.33097C43.7395 9.64583 43.9171 9.89678 44.1515 10.0838C44.3882 10.2685 44.6818 10.3608 45.0321 10.3608ZM55.3198 8.76989V5.54545H56.1578V11H55.3198V10.0767H55.263C55.1351 10.3537 54.9363 10.5893 54.6664 10.7834C54.3965 10.9751 54.0556 11.071 53.6436 11.071C53.3027 11.071 52.9997 10.9964 52.7346 10.8473C52.4694 10.6958 52.2611 10.4685 52.1096 10.1655C51.958 9.86009 51.8823 9.47538 51.8823 9.01136V5.54545H52.7203V8.95455C52.7203 9.35227 52.8316 9.66951 53.0542 9.90625C53.2791 10.143 53.5655 10.2614 53.9135 10.2614C54.1219 10.2614 54.3337 10.2081 54.5492 10.1016C54.767 9.99503 54.9493 9.83168 55.0961 9.61151C55.2452 9.39134 55.3198 9.1108 55.3198 8.76989ZM61.5565 6.76705L60.8036 6.98011C60.7563 6.85464 60.6864 6.73272 60.5941 6.61435C60.5041 6.49361 60.381 6.39418 60.2248 6.31605C60.0685 6.23793 59.8685 6.19886 59.6246 6.19886C59.2908 6.19886 59.0127 6.2758 58.7901 6.42969C58.57 6.5812 58.4599 6.77415 58.4599 7.00852C58.4599 7.21686 58.5356 7.38139 58.6871 7.50213C58.8387 7.62287 59.0754 7.72348 59.3974 7.80398L60.207 8.00284C60.6947 8.12121 61.0581 8.30232 61.2972 8.54616C61.5363 8.78764 61.6559 9.09896 61.6559 9.48011C61.6559 9.79261 61.5659 10.072 61.386 10.3182C61.2085 10.5644 60.9599 10.7585 60.6403 10.9006C60.3207 11.0426 59.949 11.1136 59.5252 11.1136C58.9689 11.1136 58.5084 10.9929 58.1438 10.7514C57.7792 10.5099 57.5484 10.1572 57.4513 9.69318L58.2468 9.49432C58.3226 9.78788 58.4658 10.008 58.6765 10.1548C58.8896 10.3016 59.1677 10.375 59.511 10.375C59.9016 10.375 60.2118 10.2921 60.4414 10.1264C60.6734 9.95833 60.7894 9.7571 60.7894 9.52273C60.7894 9.33333 60.7231 9.17472 60.5906 9.04688C60.458 8.91667 60.2544 8.8196 59.9798 8.75568L59.0707 8.54261C58.5711 8.42424 58.2042 8.24077 57.9698 7.99219C57.7378 7.74124 57.6218 7.42756 57.6218 7.05114C57.6218 6.74337 57.7082 6.47112 57.881 6.23438C58.0562 5.99763 58.2942 5.81179 58.5948 5.67685C58.8978 5.5419 59.2411 5.47443 59.6246 5.47443C60.1644 5.47443 60.5882 5.5928 60.896 5.82955C61.2061 6.06629 61.4263 6.37879 61.5565 6.76705ZM67.9458 11.1136C67.4534 11.1136 67.0214 10.9964 66.6497 10.7621C66.2804 10.5277 65.9915 10.1998 65.7832 9.77841C65.5772 9.35701 65.4743 8.86458 65.4743 8.30114C65.4743 7.73295 65.5772 7.23698 65.7832 6.81321C65.9915 6.38944 66.2804 6.06037 66.6497 5.82599C67.0214 5.59162 67.4534 5.47443 67.9458 5.47443C68.4383 5.47443 68.8691 5.59162 69.2385 5.82599C69.6101 6.06037 69.899 6.38944 70.1049 6.81321C70.3133 7.23698 70.4174 7.73295 70.4174 8.30114C70.4174 8.86458 70.3133 9.35701 70.1049 9.77841C69.899 10.1998 69.6101 10.5277 69.2385 10.7621C68.8691 10.9964 68.4383 11.1136 67.9458 11.1136ZM67.9458 10.3608C68.3199 10.3608 68.6277 10.2649 68.8691 10.0732C69.1106 9.88139 69.2894 9.62926 69.4054 9.31676C69.5214 9.00426 69.5794 8.66572 69.5794 8.30114C69.5794 7.93655 69.5214 7.59683 69.4054 7.28196C69.2894 6.96709 69.1106 6.71259 68.8691 6.51847C68.6277 6.32434 68.3199 6.22727 67.9458 6.22727C67.5718 6.22727 67.264 6.32434 67.0225 6.51847C66.7811 6.71259 66.6023 6.96709 66.4863 7.28196C66.3703 7.59683 66.3123 7.93655 66.3123 8.30114C66.3123 8.66572 66.3703 9.00426 66.4863 9.31676C66.6023 9.62926 66.7811 9.88139 67.0225 10.0732C67.264 10.2649 67.5718 10.3608 67.9458 10.3608ZM72.5348 7.71875V11H71.6967V5.54545H72.5064V6.39773H72.5774C72.7053 6.12074 72.8994 5.8982 73.1598 5.73011C73.4202 5.55966 73.7564 5.47443 74.1683 5.47443C74.5376 5.47443 74.8608 5.55019 75.1378 5.7017C75.4148 5.85085 75.6302 6.07812 75.7841 6.38352C75.938 6.68655 76.0149 7.07008 76.0149 7.53409V11H75.1768V7.59091C75.1768 7.16241 75.0656 6.8286 74.843 6.58949C74.6205 6.34801 74.3151 6.22727 73.9268 6.22727C73.6593 6.22727 73.4202 6.28527 73.2095 6.40128C73.0012 6.51728 72.8366 6.68655 72.7159 6.90909C72.5952 7.13163 72.5348 7.40152 72.5348 7.71875ZM34.7074 19.0597C34.6364 18.8295 34.5384 18.6236 34.4134 18.4418C34.2912 18.2571 34.1435 18.0994 33.9702 17.9688C33.7997 17.8381 33.6037 17.7401 33.3821 17.6747C33.1605 17.6065 32.919 17.5724 32.6577 17.5724C32.1889 17.5724 31.7713 17.6903 31.4048 17.9261C31.0384 18.1619 30.75 18.5085 30.5398 18.9659C30.3324 19.4205 30.2287 19.9744 30.2287 20.6278C30.2287 21.2869 30.3324 21.8452 30.5398 22.3026C30.7472 22.7599 31.0355 23.108 31.4048 23.3466C31.7741 23.5824 32.2031 23.7003 32.6918 23.7003C33.1349 23.7003 33.5185 23.6151 33.8423 23.4446C34.169 23.2741 34.4205 23.0327 34.5966 22.7202C34.7727 22.4048 34.8608 22.0355 34.8608 21.6122L35.2188 21.6676H32.8494V20.4318H36.3906V21.4801C36.3906 22.2273 36.2315 22.8736 35.9134 23.419C35.5952 23.9645 35.1577 24.3849 34.6009 24.6804C34.044 24.973 33.4048 25.1193 32.6832 25.1193C31.8793 25.1193 31.1733 24.9389 30.5653 24.5781C29.9602 24.2145 29.4872 23.6989 29.1463 23.0312C28.8082 22.3608 28.6392 21.5653 28.6392 20.6449C28.6392 19.9403 28.7386 19.3111 28.9375 18.7571C29.1392 18.2031 29.4205 17.733 29.7812 17.3466C30.142 16.9574 30.5653 16.6619 31.0511 16.4602C31.5369 16.2557 32.0653 16.1534 32.6364 16.1534C33.1193 16.1534 33.5696 16.2244 33.9872 16.3665C34.4048 16.5057 34.7756 16.7045 35.0994 16.9631C35.4261 17.2216 35.6946 17.5284 35.9048 17.8835C36.1151 18.2386 36.2528 18.6307 36.3182 19.0597H34.7074ZM40.7063 25.1278C40.0671 25.1278 39.5131 24.9872 39.0444 24.706C38.5756 24.4247 38.212 24.0312 37.9535 23.5256C37.6978 23.0199 37.57 22.429 37.57 21.7528C37.57 21.0767 37.6978 20.4844 37.9535 19.9759C38.212 19.4673 38.5756 19.0724 39.0444 18.7912C39.5131 18.5099 40.0671 18.3693 40.7063 18.3693C41.3455 18.3693 41.8995 18.5099 42.3683 18.7912C42.837 19.0724 43.1992 19.4673 43.4549 19.9759C43.7134 20.4844 43.8427 21.0767 43.8427 21.7528C43.8427 22.429 43.7134 23.0199 43.4549 23.5256C43.1992 24.0312 42.837 24.4247 42.3683 24.706C41.8995 24.9872 41.3455 25.1278 40.7063 25.1278ZM40.7148 23.892C41.0614 23.892 41.3512 23.7969 41.5842 23.6065C41.8171 23.4134 41.9904 23.1548 42.104 22.831C42.2205 22.5071 42.2788 22.1463 42.2788 21.7486C42.2788 21.348 42.2205 20.9858 42.104 20.6619C41.9904 20.3352 41.8171 20.0753 41.5842 19.8821C41.3512 19.6889 41.0614 19.5923 40.7148 19.5923C40.3597 19.5923 40.0643 19.6889 39.8285 19.8821C39.5955 20.0753 39.4208 20.3352 39.3043 20.6619C39.1907 20.9858 39.1339 21.348 39.1339 21.7486C39.1339 22.1463 39.1907 22.5071 39.3043 22.831C39.4208 23.1548 39.5955 23.4134 39.8285 23.6065C40.0643 23.7969 40.3597 23.892 40.7148 23.892ZM48.0071 25.1278C47.3679 25.1278 46.8139 24.9872 46.3452 24.706C45.8764 24.4247 45.5128 24.0312 45.2543 23.5256C44.9986 23.0199 44.8707 22.429 44.8707 21.7528C44.8707 21.0767 44.9986 20.4844 45.2543 19.9759C45.5128 19.4673 45.8764 19.0724 46.3452 18.7912C46.8139 18.5099 47.3679 18.3693 48.0071 18.3693C48.6463 18.3693 49.2003 18.5099 49.669 18.7912C50.1378 19.0724 50.5 19.4673 50.7557 19.9759C51.0142 20.4844 51.1435 21.0767 51.1435 21.7528C51.1435 22.429 51.0142 23.0199 50.7557 23.5256C50.5 24.0312 50.1378 24.4247 49.669 24.706C49.2003 24.9872 48.6463 25.1278 48.0071 25.1278ZM48.0156 23.892C48.3622 23.892 48.652 23.7969 48.8849 23.6065C49.1179 23.4134 49.2912 23.1548 49.4048 22.831C49.5213 22.5071 49.5795 22.1463 49.5795 21.7486C49.5795 21.348 49.5213 20.9858 49.4048 20.6619C49.2912 20.3352 49.1179 20.0753 48.8849 19.8821C48.652 19.6889 48.3622 19.5923 48.0156 19.5923C47.6605 19.5923 47.3651 19.6889 47.1293 19.8821C46.8963 20.0753 46.7216 20.3352 46.6051 20.6619C46.4915 20.9858 46.4347 21.348 46.4347 21.7486C46.4347 22.1463 46.4915 22.5071 46.6051 22.831C46.7216 23.1548 46.8963 23.4134 47.1293 23.6065C47.3651 23.7969 47.6605 23.892 48.0156 23.892ZM55.2994 27.5909C54.7454 27.5909 54.2695 27.5156 53.8718 27.3651C53.4741 27.2173 53.1545 27.0185 52.913 26.7685C52.6715 26.5185 52.5039 26.2415 52.4102 25.9375L53.7994 25.6009C53.8619 25.7287 53.9528 25.8551 54.0721 25.9801C54.1914 26.108 54.3519 26.2131 54.5536 26.2955C54.7582 26.3807 55.0153 26.4233 55.3249 26.4233C55.7624 26.4233 56.1246 26.3168 56.4116 26.1037C56.6985 25.8935 56.842 25.5469 56.842 25.0639V23.8239H56.7653C56.6857 23.983 56.5692 24.1463 56.4158 24.3139C56.2653 24.4815 56.065 24.6222 55.815 24.7358C55.5678 24.8494 55.2567 24.9062 54.8817 24.9062C54.3789 24.9062 53.9229 24.7884 53.5138 24.5526C53.1076 24.3139 52.7837 23.9588 52.5423 23.4872C52.3036 23.0128 52.1843 22.419 52.1843 21.706C52.1843 20.9872 52.3036 20.3807 52.5423 19.8864C52.7837 19.3892 53.109 19.0128 53.5181 18.7571C53.9272 18.4986 54.3832 18.3693 54.886 18.3693C55.2695 18.3693 55.5849 18.4347 55.832 18.5653C56.082 18.6932 56.2809 18.848 56.4286 19.0298C56.5763 19.2088 56.6886 19.3778 56.7653 19.5369H56.8505V18.4545H58.3718V25.1065C58.3718 25.6662 58.2383 26.1293 57.9712 26.4957C57.7042 26.8622 57.3391 27.1364 56.8761 27.3182C56.413 27.5 55.8874 27.5909 55.2994 27.5909ZM55.3121 23.696C55.6388 23.696 55.9173 23.6165 56.1474 23.4574C56.3775 23.2983 56.5522 23.0696 56.6715 22.7713C56.7908 22.473 56.8505 22.1151 56.8505 21.6974C56.8505 21.2855 56.7908 20.9247 56.6715 20.6151C56.555 20.3054 56.3817 20.0653 56.1516 19.8949C55.9244 19.7216 55.6445 19.6349 55.3121 19.6349C54.9684 19.6349 54.6815 19.7244 54.4513 19.9034C54.2212 20.0824 54.0479 20.3281 53.9315 20.6406C53.815 20.9503 53.7567 21.3026 53.7567 21.6974C53.7567 22.098 53.815 22.4489 53.9315 22.75C54.0508 23.0483 54.2255 23.2812 54.4556 23.4489C54.6886 23.6136 54.9741 23.696 55.3121 23.696ZM61.4954 16.2727V25H59.9528V16.2727H61.4954ZM65.9794 25.1278C65.3232 25.1278 64.7564 24.9915 64.2791 24.7188C63.8047 24.4432 63.4396 24.054 63.1839 23.5511C62.9283 23.0455 62.8004 22.4503 62.8004 21.7656C62.8004 21.0923 62.9283 20.5014 63.1839 19.9929C63.4425 19.4815 63.8033 19.0838 64.2663 18.7997C64.7294 18.5128 65.2734 18.3693 65.8984 18.3693C66.3018 18.3693 66.6825 18.4347 67.0405 18.5653C67.4013 18.6932 67.7195 18.892 67.995 19.1619C68.2734 19.4318 68.4922 19.7756 68.6513 20.1932C68.8104 20.608 68.8899 21.1023 68.8899 21.6761V22.1491H63.5249V21.1094H67.4112C67.4084 20.8139 67.3445 20.5511 67.2195 20.321C67.0945 20.0881 66.9197 19.9048 66.6953 19.7713C66.4737 19.6378 66.2152 19.571 65.9197 19.571C65.6044 19.571 65.3274 19.6477 65.0888 19.8011C64.8501 19.9517 64.6641 20.1506 64.5305 20.3977C64.3999 20.642 64.3331 20.9105 64.3303 21.2031V22.1108C64.3303 22.4915 64.3999 22.8182 64.5391 23.0909C64.6783 23.3608 64.8729 23.5682 65.1229 23.7131C65.3729 23.8551 65.6655 23.9261 66.0007 23.9261C66.2251 23.9261 66.4283 23.8949 66.6101 23.8324C66.7919 23.767 66.9496 23.6719 67.0831 23.5469C67.2166 23.4219 67.3175 23.267 67.3857 23.0824L68.826 23.2443C68.7351 23.625 68.5618 23.9574 68.3061 24.2415C68.0533 24.5227 67.7294 24.7415 67.3345 24.8977C66.9396 25.0511 66.4879 25.1278 65.9794 25.1278ZM73.1715 25V18.4545H74.646V19.5668H74.7227C74.859 19.1918 75.0849 18.8991 75.4002 18.6889C75.7156 18.4759 76.092 18.3693 76.5295 18.3693C76.9727 18.3693 77.3462 18.4773 77.6502 18.6932C77.957 18.9062 78.1729 19.1974 78.2979 19.5668H78.3661C78.511 19.2031 78.7553 18.9134 79.0991 18.6974C79.4457 18.4787 79.8562 18.3693 80.3306 18.3693C80.9329 18.3693 81.4244 18.5597 81.805 18.9403C82.1857 19.321 82.3761 19.8764 82.3761 20.6065V25H80.8292V20.8452C80.8292 20.4389 80.7212 20.142 80.5053 19.9545C80.2894 19.7642 80.0252 19.669 79.7127 19.669C79.3406 19.669 79.0494 19.7855 78.8391 20.0185C78.6317 20.2486 78.5281 20.5483 78.5281 20.9176V25H77.0153V20.7812C77.0153 20.4432 76.913 20.1733 76.7085 19.9716C76.5067 19.7699 76.2425 19.669 75.9158 19.669C75.6942 19.669 75.4925 19.7259 75.3107 19.8395C75.1289 19.9503 74.984 20.108 74.8761 20.3125C74.7681 20.5142 74.7141 20.75 74.7141 21.0199V25H73.1715ZM85.8246 25.1321C85.4098 25.1321 85.0362 25.0582 84.7038 24.9105C84.3743 24.7599 84.1129 24.5384 83.9197 24.2457C83.7294 23.9531 83.6342 23.5923 83.6342 23.1634C83.6342 22.794 83.7024 22.4886 83.8388 22.2472C83.9751 22.0057 84.1612 21.8125 84.397 21.6676C84.6328 21.5227 84.8984 21.4134 85.1939 21.3395C85.4922 21.2628 85.8004 21.2074 86.1186 21.1733C86.5021 21.1335 86.8132 21.098 87.0518 21.0668C87.2905 21.0327 87.4638 20.9815 87.5717 20.9134C87.6825 20.8423 87.7379 20.733 87.7379 20.5852V20.5597C87.7379 20.2386 87.6428 19.9901 87.4524 19.8139C87.2621 19.6378 86.9879 19.5497 86.63 19.5497C86.2521 19.5497 85.9524 19.6321 85.7308 19.7969C85.5121 19.9616 85.3643 20.1562 85.2876 20.3807L83.8473 20.1761C83.9609 19.7784 84.1484 19.446 84.4098 19.179C84.6712 18.9091 84.9908 18.7074 85.3686 18.5739C85.7464 18.4375 86.1641 18.3693 86.6214 18.3693C86.9368 18.3693 87.2507 18.4062 87.5632 18.4801C87.8757 18.554 88.1612 18.6761 88.4197 18.8466C88.6783 19.0142 88.8857 19.2429 89.0419 19.5327C89.201 19.8224 89.2805 20.1847 89.2805 20.6193V25H87.7976V24.1009H87.7464C87.6527 24.2827 87.5206 24.4531 87.3501 24.6122C87.1825 24.7685 86.9709 24.8949 86.7152 24.9915C86.4624 25.0852 86.1655 25.1321 85.8246 25.1321ZM86.2251 23.9986C86.5348 23.9986 86.8033 23.9375 87.0305 23.8153C87.2578 23.6903 87.4325 23.5256 87.5547 23.321C87.6797 23.1165 87.7422 22.8935 87.7422 22.652V21.8807C87.6939 21.9205 87.6115 21.9574 87.495 21.9915C87.3814 22.0256 87.2536 22.0554 87.1115 22.081C86.9695 22.1065 86.8288 22.1293 86.6896 22.1491C86.5504 22.169 86.4297 22.1861 86.3274 22.2003C86.0973 22.2315 85.8913 22.2827 85.7095 22.3537C85.5277 22.4247 85.3842 22.5241 85.2791 22.652C85.174 22.777 85.1214 22.9389 85.1214 23.1378C85.1214 23.4219 85.2251 23.6364 85.4325 23.7812C85.6399 23.9261 85.9041 23.9986 86.2251 23.9986ZM90.8317 27.4545V18.4545H92.3487V19.5369H92.4382C92.5178 19.3778 92.63 19.2088 92.7749 19.0298C92.9197 18.848 93.1158 18.6932 93.3629 18.5653C93.6101 18.4347 93.9254 18.3693 94.3089 18.3693C94.8146 18.3693 95.2706 18.4986 95.6768 18.7571C96.0859 19.0128 96.4098 19.392 96.6484 19.8949C96.8899 20.3949 97.0107 21.0085 97.0107 21.7358C97.0107 22.4545 96.8928 23.0653 96.657 23.5682C96.4212 24.071 96.1001 24.4545 95.6939 24.7188C95.2876 24.983 94.8274 25.1151 94.3132 25.1151C93.9382 25.1151 93.6271 25.0526 93.38 24.9276C93.1328 24.8026 92.9339 24.652 92.7834 24.4759C92.6357 24.2969 92.5206 24.1278 92.4382 23.9688H92.3743V27.4545H90.8317ZM92.3445 21.7273C92.3445 22.1506 92.4041 22.5213 92.5234 22.8395C92.6456 23.1577 92.8203 23.4062 93.0476 23.5852C93.2777 23.7614 93.5561 23.8494 93.8828 23.8494C94.2237 23.8494 94.5092 23.7585 94.7393 23.5767C94.9695 23.392 95.1428 23.1406 95.2592 22.8224C95.3786 22.5014 95.4382 22.1364 95.4382 21.7273C95.4382 21.321 95.38 20.9602 95.2635 20.6449C95.147 20.3295 94.9737 20.0824 94.7436 19.9034C94.5135 19.7244 94.2266 19.6349 93.8828 19.6349C93.5533 19.6349 93.2734 19.7216 93.0433 19.8949C92.8132 20.0682 92.6385 20.3111 92.5192 20.6236C92.4027 20.9361 92.3445 21.304 92.3445 21.7273Z" fill="#828282"/>
<defs>
<clipPath id="clip0_2_4034">
<rect width="20" height="29" fill="white"/>
</clipPath>
</defs>
</svg>
